<svg width="28" height="28" viewBox="0 0 28 28" fill="none" xmlns="http://www.w3.org/2000/svg">
<path d="M24.9423 14.0251C24.9423 19.9331 20.1531 24.7223 14.2451 24.7223C8.33706 24.7223 3.54785 19.9331 3.54785 14.0251C3.54785 8.11709 8.33706 3.32788 14.2451 3.32788C20.1531 3.32788 24.9423 8.11709 24.9423 14.0251Z" fill="#6C91AF" stroke="white" stroke-width="2.38842" stroke-miterlimit="10" stroke-linejoin="round"/>
<path d="M19.5674 9.21147L17.5641 19.4422C17.5641 19.4422 17.4779 19.9087 16.8986 19.9087C16.589 19.9087 16.4298 19.7628 16.4298 19.7628L12.0917 16.1609L9.96684 15.0908L7.24279 14.3655C7.24279 14.3655 6.75635 14.2262 6.75635 13.8238C6.75635 13.4899 7.25605 13.3307 7.25605 13.3307L18.6586 8.80021C18.6564 8.80021 19.0058 8.67639 19.26 8.67639C19.417 8.67639 19.5939 8.74272 19.5939 8.94393C19.5939 9.0766 19.5674 9.21147 19.5674 9.21147Z" fill="white" stroke="white" stroke-width="2.38842" stroke-miterlimit="10" stroke-linejoin="round"/>
<path d="M13.7101 17.5053L11.8771 19.3096C11.8771 19.3096 11.7975 19.3715 11.6914 19.3737C11.6538 19.3737 11.614 19.3693 11.5742 19.3516L12.0894 16.161L13.7101 17.5053Z" fill="#B0BEC5" stroke="white" stroke-width="2.38842" stroke-miterlimit="10" stroke-linejoin="round"/>
<path d="M17.3496 11.2944L12.0894 16.161L11.5743 19.3516C11.5743 19.3516 11.4372 19.3384 11.2647 18.7922C11.0922 18.2461 9.9668 15.0953 9.9668 15.0953L17.0246 10.8699C17.1418 10.7815 17.3098 10.8036 17.4005 10.9208C17.4889 11.0379 17.4668 11.206 17.3496 11.2944Z" fill="#CFD8DC" stroke="white" stroke-width="2.38842" stroke-miterlimit="10" stroke-linejoin="round"/>
<path d="M14.2451 3.32788C8.33706 3.32788 3.54785 8.11709 3.54785 14.0251C3.54785 19.9331 8.33706 24.7223 14.2451 24.7223C20.1531 24.7223 24.9423 19.9331 24.9423 14.0251C24.9423 8.11709 20.1531 3.32788 14.2451 3.32788Z" fill="#6C91AF"/>
<path d="M19.5674 9.21147L17.5641 19.4422C17.5641 19.4422 17.4779 19.9087 16.8986 19.9087C16.589 19.9087 16.4298 19.7628 16.4298 19.7628L12.0917 16.1609L9.96684 15.0907L7.24279 14.3655C7.24279 14.3655 6.75635 14.2262 6.75635 13.8238C6.75635 13.4899 7.25605 13.3307 7.25605 13.3307L18.6586 8.80021C18.6564 8.80021 19.0058 8.67639 19.26 8.67639C19.417 8.67639 19.5939 8.74272 19.5939 8.94393C19.5939 9.0766 19.5674 9.21147 19.5674 9.21147Z" fill="white"/>
<path d="M13.7101 17.5054L11.8771 19.3096C11.8771 19.3096 11.7975 19.3715 11.6914 19.3737C11.6538 19.3737 11.614 19.3693 11.5742 19.3516L12.0894 16.161L13.7101 17.5054Z" fill="#B0BEC5"/>
<path d="M17.4005 10.9208C17.3098 10.8036 17.1418 10.7815 17.0246 10.8699L9.9668 15.0953C9.9668 15.0953 11.0922 18.2461 11.2647 18.7922C11.4372 19.3384 11.5743 19.3516 11.5743 19.3516L12.0894 16.161L17.3496 11.2944C17.4668 11.206 17.4889 11.0379 17.4005 10.9208Z" fill="#CFD8DC"/>
</svg>
