<svg width="28" height="29" viewBox="0 0 28 29" fill="none" xmlns="http://www.w3.org/2000/svg">
<path d="M3.51025 25.4607L5.03516 19.8937C4.0944 18.2647 3.59969 16.416 3.60025 14.5226C3.60308 8.59903 8.42346 3.77979 14.3476 3.77979C17.2225 3.78092 19.9203 4.89997 21.9495 6.93035C23.9782 8.96129 25.0955 11.6602 25.0944 14.5311C25.0921 20.4547 20.2706 25.2745 14.3476 25.2745C14.347 25.2745 14.3476 25.2745 14.3476 25.2745H14.3431C12.5448 25.2739 10.777 24.8228 9.20742 23.9664L3.51025 25.4607Z" fill="white"/>
<path d="M3.51031 25.7438C3.43559 25.7438 3.36314 25.7144 3.30937 25.66C3.23861 25.5881 3.21088 25.4834 3.23748 25.3866L4.73125 19.9323C3.80522 18.2874 3.31673 16.4195 3.31786 14.5232C3.32012 8.44286 8.26786 3.49683 14.3477 3.49683C17.2967 3.49796 20.0675 4.64645 22.1499 6.7306C24.2324 8.81532 25.3786 11.5855 25.3775 14.5312C25.3752 20.611 20.4269 25.5576 14.3477 25.5576C12.5426 25.557 10.7567 25.1115 9.17182 24.2687L3.5822 25.7342C3.55842 25.741 3.53465 25.7438 3.51031 25.7438Z" fill="white"/>
<path d="M14.348 3.7799C17.2229 3.78104 19.9206 4.90009 21.9499 6.93047C23.9785 8.96141 25.0959 11.6603 25.0948 14.5312C25.0925 20.4548 20.271 25.2746 14.348 25.2746H14.3434C12.5451 25.2741 10.7774 24.8229 9.20778 23.9665L3.51061 25.4608L5.03551 19.8939C4.09476 18.2648 3.60004 16.4161 3.60061 14.5227C3.60344 8.59915 8.42381 3.7799 14.348 3.7799ZM14.348 3.21387C8.11249 3.21387 3.0374 8.2867 3.03457 14.5227C3.034 16.4286 3.51513 18.3067 4.42759 19.9692L2.96438 25.312C2.91117 25.5073 2.96551 25.7156 3.10815 25.8593C3.2157 25.968 3.36117 26.0275 3.51061 26.0275C3.55872 26.0275 3.60683 26.0212 3.65438 26.0088L9.13759 24.571C10.7383 25.402 12.5327 25.8407 14.3434 25.8412C20.5834 25.8412 25.6585 20.7678 25.6614 14.5318C25.6625 11.5097 24.4868 8.66821 22.3512 6.53085C20.2144 4.39292 17.3723 3.215 14.348 3.21387Z" fill="#CFD8DC"/>
<path d="M20.6659 8.21309C18.9791 6.52517 16.737 5.59517 14.3506 5.5946C9.4238 5.5946 5.41682 9.59989 5.41455 14.5233C5.41399 16.2106 5.88606 17.8533 6.7804 19.2757L6.99323 19.6137L6.0904 22.9086L9.47134 22.0222L9.79795 22.2157C11.1689 23.0297 12.7413 23.4599 14.3444 23.4605H14.3478C19.2712 23.4605 23.2781 19.4546 23.2798 14.5306C23.2804 12.1448 22.3527 9.90102 20.6659 8.21309Z" fill="#40C351"/>
<path fill-rule="evenodd" clip-rule="evenodd" d="M11.6615 10.0317C11.4606 9.5845 11.2489 9.57544 11.057 9.56752C10.9002 9.56073 10.7213 9.56129 10.5425 9.56129C10.3636 9.56129 10.0726 9.62865 9.82642 9.89752C9.58019 10.1664 8.88623 10.8156 8.88623 12.1368C8.88623 13.4579 9.84849 14.7349 9.98265 14.9137C10.1168 15.0926 11.8404 17.8905 14.5698 18.9671C16.8379 19.8615 17.2998 19.6837 17.7923 19.639C18.2847 19.5943 19.3811 18.9898 19.6047 18.3626C19.8283 17.7354 19.8283 17.1983 19.7615 17.0862C19.6942 16.9741 19.5153 16.9073 19.247 16.7726C18.9787 16.6379 17.6581 15.9886 17.4119 15.8992C17.1657 15.8098 16.9868 15.7651 16.8074 16.0339C16.6285 16.3022 16.114 16.9073 15.9572 17.0862C15.8004 17.2656 15.6436 17.2883 15.3753 17.1536C15.107 17.0188 14.2421 16.7358 13.2159 15.8211C12.4177 15.1096 11.8789 14.2305 11.7221 13.9617C11.5653 13.6934 11.7051 13.5479 11.8398 13.4137C11.9604 13.2932 12.1081 13.1002 12.2428 12.9434C12.377 12.7866 12.4217 12.6745 12.5111 12.4956C12.6006 12.3162 12.5559 12.1594 12.4885 12.0253C12.4223 11.8905 11.9004 10.5626 11.6615 10.0317Z" fill="white"/>
</svg>
