<svg width="52" height="52" viewBox="0 0 52 52" fill="none" xmlns="http://www.w3.org/2000/svg">
<path d="M11.4398 8.84009C10.475 8.84009 9.66656 9.50634 9.43297 10.4001H9.35984C9.07344 10.4001 8.83984 10.6337 8.83984 10.9201V14.0401C8.83984 14.3265 9.07344 14.5601 9.35984 14.5601H9.98953L14.0541 31.322C14.1109 31.5556 14.3202 31.7201 14.5598 31.7201H15.5998V35.8801C15.5998 36.7352 16.3047 37.4401 17.1598 37.4401H17.6798V39.8065C17.0948 40.1112 16.6398 40.6393 16.6398 41.3401C16.6398 42.3395 17.4605 43.1601 18.4598 43.1601H23.1398C24.1392 43.1601 24.9598 42.3395 24.9598 41.3401C24.9598 40.6413 24.5069 40.1112 23.9219 39.8065L23.9198 39.5181V37.4401H28.0798V39.8065C27.4948 40.1112 27.0398 40.6393 27.0398 41.3401C27.0398 42.3395 27.8605 43.1601 28.8598 43.1601H33.5398C34.5392 43.1601 35.3598 42.3395 35.3598 41.3401C35.3598 40.6393 34.9048 40.1112 34.3198 39.8065V37.4401H34.8398C35.695 37.4401 36.3998 36.7352 36.3998 35.8801V31.7201H37.4398C37.6795 31.7201 37.8887 31.5556 37.9456 31.322L42.0102 14.5601H42.6398C42.9263 14.5601 43.1598 14.3265 43.1598 14.0401V10.9201C43.1598 10.6337 42.9263 10.4001 42.6398 10.4001H42.5667C42.3331 9.50634 41.5247 8.84009 40.5598 8.84009H30.1598C29.195 8.84009 28.3866 9.50634 28.153 10.4001H28.0798C27.7934 10.4001 27.5598 10.6337 27.5598 10.9201V14.0401C27.5598 14.3265 27.7934 14.5601 28.0798 14.5601H28.5998V25.4923C28.5145 25.4862 28.4272 25.4801 28.3398 25.4801H23.6598C23.5725 25.4801 23.4852 25.4862 23.3998 25.4923V14.5601H23.9198C24.2062 14.5601 24.4398 14.3265 24.4398 14.0401V10.9201C24.4398 10.6337 24.2062 10.4001 23.9198 10.4001H23.8467C23.6131 9.50634 22.8047 8.84009 21.8398 8.84009H11.4398ZM11.4398 9.36009H21.8398C22.5081 9.36009 23.0139 9.80493 23.2231 10.4001H10.0566C10.2658 9.80493 10.7716 9.36009 11.4398 9.36009ZM30.1598 9.36009H40.5598C41.2281 9.36009 41.7339 9.80493 41.9431 10.4001H28.7766C28.9858 9.80493 29.4916 9.36009 30.1598 9.36009ZM9.87984 11.4401H23.3998V13.5201H14.2998C14.2064 13.5181 14.1191 13.5688 14.0723 13.6481C14.0236 13.7293 14.0236 13.8309 14.0723 13.9121C14.1191 13.9913 14.2064 14.0421 14.2998 14.0401H22.3517C22.3537 14.0685 22.3558 14.0949 22.3598 14.1234V25.797C21.4356 26.2702 20.7998 27.2331 20.7998 28.3401C20.7998 29.307 21.2833 30.1621 22.0227 30.6801H14.9702L10.9341 14.0401H12.7398C12.8333 14.0421 12.9206 13.9913 12.9673 13.9121C13.0161 13.8309 13.0161 13.7293 12.9673 13.6481C12.9206 13.5688 12.8333 13.5181 12.7398 13.5201H10.4852C10.4648 13.516 10.4425 13.514 10.4222 13.512C10.3836 13.512 10.347 13.514 10.3105 13.5201H9.87984V11.4401ZM28.5998 11.4401H42.1198V13.5201H33.5398C33.4464 13.5181 33.3591 13.5688 33.3123 13.6481C33.2636 13.7293 33.2636 13.8309 33.3123 13.9121C33.3591 13.9913 33.4464 14.0421 33.5398 14.0401H41.0656L37.0295 30.6801H35.8798C35.5934 30.6801 35.3598 30.9137 35.3598 31.2001V35.8801C35.3598 36.1746 35.1344 36.4001 34.8398 36.4001H17.1598C16.8653 36.4001 16.6398 36.1746 16.6398 35.8801V31.2001H34.0598C34.1533 31.2021 34.2406 31.1513 34.2873 31.0721C34.3361 30.9909 34.3361 30.8893 34.2873 30.8081C34.2406 30.7288 34.1533 30.6781 34.0598 30.6801H29.977C30.7164 30.1621 31.1998 29.307 31.1998 28.3401C31.1998 27.2331 30.5641 26.2702 29.6398 25.797V14.1274C29.6662 13.9751 29.6236 13.8187 29.522 13.7009C29.4225 13.5851 29.2742 13.5181 29.1198 13.5201H28.5998V11.4401ZM30.9398 13.5201C30.8464 13.5181 30.7591 13.5688 30.7123 13.6481C30.6636 13.7293 30.6636 13.8309 30.7123 13.9121C30.7591 13.9913 30.8464 14.0421 30.9398 14.0401H31.9798C32.0733 14.0421 32.1606 13.9913 32.2073 13.9121C32.2561 13.8309 32.2561 13.7293 32.2073 13.6481C32.1606 13.5688 32.0733 13.5181 31.9798 13.5201H30.9398ZM23.6598 26.0001H28.3398C29.6337 26.0001 30.6798 27.0462 30.6798 28.3401C30.6798 29.634 29.6337 30.6801 28.3398 30.6801H23.6598C22.3659 30.6801 21.3198 29.634 21.3198 28.3401C21.3198 27.0462 22.3659 26.0001 23.6598 26.0001ZM18.7198 37.4401H22.8798V39.5201V39.5221L22.8819 40.0401H18.7198V37.4401ZM29.1198 37.4401H33.2798V39.7699C33.2798 39.772 33.2798 39.772 33.2798 39.774L33.2819 40.0401H30.6798C30.5864 40.0381 30.4991 40.0888 30.4523 40.1681C30.4036 40.2493 30.4036 40.3509 30.4523 40.4321C30.4991 40.5113 30.5864 40.5621 30.6798 40.5601H33.6394C33.6577 40.5662 33.678 40.5723 33.6962 40.5763C34.0517 40.6495 34.3198 40.9582 34.3198 41.3401C34.3198 41.7768 33.9766 42.1201 33.5398 42.1201H28.8598C28.4231 42.1201 28.0798 41.7768 28.0798 41.3401C28.0798 40.9562 28.348 40.6474 28.7034 40.5763C28.9452 40.5256 29.1198 40.3143 29.1198 40.0665V37.4401ZM23.213 40.552C23.2394 40.5621 23.2678 40.5702 23.2983 40.5763C23.6517 40.6495 23.9198 40.9582 23.9198 41.3401C23.9198 41.7768 23.5766 42.1201 23.1398 42.1201H18.4598C18.0231 42.1201 17.6798 41.7768 17.6798 41.3401C17.6798 40.9562 17.948 40.6474 18.3034 40.5743C18.3217 40.5723 18.342 40.5662 18.3603 40.5601H23.1398C23.1642 40.5601 23.1886 40.5581 23.213 40.552Z" fill="#6C91AF"/>
</svg>
