<svg width="30" height="38" viewBox="0 0 30 38" fill="none" xmlns="http://www.w3.org/2000/svg">
<path d="M13.7 0.800049C13.1739 0.800049 12.7209 1.05192 12.3918 1.40942C12.2273 1.36677 12.0648 1.32005 11.88 1.32005C11.1101 1.32005 10.4764 1.77302 10.1168 2.39864C10.0132 2.38036 9.91168 2.36005 9.79996 2.36005C8.65434 2.36005 7.71996 3.29442 7.71996 4.44005C7.71996 4.47864 7.72809 4.50708 7.73012 4.54364C6.83637 4.77521 6.15996 5.55521 6.15996 6.52005C6.15996 6.77599 6.24731 6.99942 6.33262 7.22083C5.64606 7.48286 5.11996 8.08411 5.11996 8.86005C5.11996 9.15052 5.23574 9.40442 5.35762 9.64817C4.91074 10.028 4.59996 10.5683 4.59996 11.2C4.59996 11.7972 4.88027 12.3111 5.28449 12.6869C5.20324 12.8738 5.11996 13.0627 5.11996 13.2801C5.11996 13.475 5.15856 13.6619 5.22559 13.8346C4.90668 14.0479 4.59996 14.3749 4.59996 14.84C4.59996 15.5083 4.83559 16.5524 5.1423 17.5883C5.29871 18.1205 5.42262 18.6649 5.7009 19.1483C5.8959 19.4916 6.25949 19.7394 6.67996 19.8877V21.6C6.67996 22.4288 7.22434 23.2697 8.01043 24.2366C8.74168 25.1324 9.73496 26.0546 10.84 26.8143V28.1386C10.84 28.3661 10.7079 28.5551 10.4967 28.6282C10.3809 28.6708 10.2468 28.7176 10.0965 28.7704C9.19871 29.0893 7.70777 29.6296 5.45715 30.4726C1.01277 32.1402 0.959961 36.68 0.959961 36.68C0.959961 36.9665 1.19355 37.2001 1.47996 37.2001H28.52C28.8064 37.2001 29.04 36.9665 29.04 36.68C29.04 36.68 28.9872 32.1402 24.5428 30.4726C22.2922 29.6296 20.7992 29.0872 19.9034 28.7683C19.9014 28.7683 19.9014 28.7683 19.9014 28.7683C19.7531 28.7176 19.6211 28.6708 19.5053 28.6282C19.5032 28.6282 19.5032 28.6282 19.5032 28.6282C19.292 28.5551 19.16 28.3661 19.16 28.1386V26.8143C20.265 26.0546 21.2582 25.1324 21.9895 24.2366C22.7756 23.2697 23.32 22.4288 23.32 21.6V19.8877C23.7404 19.7394 24.104 19.4916 24.3011 19.1483C24.5773 18.6649 24.7012 18.1205 24.8596 17.5883C25.1643 16.5524 25.4 15.5083 25.4 14.84C25.4 14.3424 25.0486 13.9971 24.7093 13.7858C24.5875 13.7086 24.4575 13.6457 24.3254 13.5847C24.3457 13.4872 24.36 13.3857 24.36 13.2801C24.36 13.0627 24.2767 12.8738 24.1975 12.6869C24.5997 12.3111 24.88 11.7972 24.88 11.2C24.88 10.5683 24.5692 10.028 24.1243 9.64817C24.2442 9.40442 24.36 9.15052 24.36 8.86005C24.36 8.08411 23.8339 7.48286 23.1473 7.22083C23.2326 6.99942 23.32 6.77599 23.32 6.52005C23.32 5.55521 22.6436 4.77521 21.7498 4.54364C21.7518 4.50708 21.76 4.47864 21.76 4.44005C21.76 3.29442 20.8256 2.36005 19.68 2.36005C19.5682 2.36005 19.4667 2.38036 19.3631 2.39864C19.0036 1.77302 18.3698 1.32005 17.6 1.32005C17.4151 1.32005 17.2526 1.36677 17.0901 1.40942C16.759 1.05192 16.3061 0.800049 15.78 0.800049C15.3778 0.800049 15.0386 0.984893 14.74 1.20427C14.4414 0.984893 14.1021 0.800049 13.7 0.800049ZM13.7 1.32005C14.0331 1.32005 14.3337 1.44802 14.5673 1.65724C14.6648 1.74661 14.8151 1.74661 14.9126 1.65724C15.1462 1.44802 15.4468 1.32005 15.78 1.32005C16.2045 1.32005 16.5742 1.52521 16.8118 1.84005C16.8809 1.92942 16.9967 1.96599 17.1023 1.92942C17.2668 1.87458 17.4314 1.84005 17.6 1.84005C18.2418 1.84005 18.7862 2.22599 19.0279 2.77442C19.0787 2.89021 19.2026 2.95317 19.3245 2.92474C19.4443 2.8963 19.5622 2.88005 19.68 2.88005C20.5453 2.88005 21.24 3.57474 21.24 4.44005C21.24 4.51317 21.2298 4.59036 21.2136 4.68177C21.2034 4.75286 21.2217 4.82396 21.2623 4.8788C21.305 4.93567 21.3679 4.97224 21.437 4.98239C22.2068 5.07989 22.8 5.7238 22.8 6.52005C22.8 6.76786 22.735 7.00146 22.6273 7.21677C22.5907 7.28989 22.5907 7.37317 22.6253 7.4463C22.6618 7.51942 22.7289 7.57021 22.8061 7.58646C23.3972 7.71036 23.84 8.23036 23.84 8.86005C23.84 9.12208 23.7607 9.3638 23.6267 9.56896C23.5495 9.68677 23.58 9.84521 23.6937 9.92442C24.0959 10.2088 24.36 10.6719 24.36 11.2C24.36 11.6977 24.1243 12.1344 23.7567 12.4229C23.6551 12.5021 23.6287 12.6463 23.6937 12.758C23.7851 12.9165 23.84 13.0911 23.84 13.2801C23.84 13.3227 23.8278 13.3593 23.8217 13.4019C23.7465 13.3755 23.6693 13.345 23.5921 13.3247C22.9746 13.148 22.4729 13.0769 22.2617 13.0505C22.2007 11.7566 21.9347 9.01646 20.7565 6.66427C20.7322 6.61349 20.6895 6.57083 20.6387 6.54646C20.6387 6.54646 18.4328 5.48005 15 5.48005C11.5671 5.48005 9.36121 6.54646 9.36121 6.54646C9.31043 6.57083 9.26777 6.61349 9.24137 6.66427C8.06324 9.02052 7.76262 11.7688 7.6834 13.0586C7.43762 13.0911 6.98262 13.1602 6.40777 13.3247C6.16606 13.3918 5.92231 13.4771 5.68871 13.5807C5.66027 13.4852 5.63996 13.3857 5.63996 13.2801C5.63996 13.0911 5.69277 12.9165 5.78621 12.758C5.85121 12.6463 5.82481 12.5021 5.72121 12.4229C5.35559 12.1344 5.11996 11.6977 5.11996 11.2C5.11996 10.6719 5.38402 10.2088 5.78418 9.92442C5.89996 9.84521 5.93043 9.68677 5.85324 9.56896C5.71918 9.3638 5.63996 9.12208 5.63996 8.86005C5.63996 8.23036 6.08277 7.71036 6.67184 7.58646C6.75106 7.57021 6.81809 7.51942 6.85465 7.4463C6.88918 7.37317 6.88918 7.28989 6.85262 7.21677C6.74496 7.00146 6.67996 6.76786 6.67996 6.52005C6.67996 5.7238 7.27309 5.07989 8.0409 4.98239C8.11199 4.97224 8.17496 4.93567 8.21762 4.8788C8.25824 4.82396 8.27652 4.75286 8.26434 4.68177C8.25012 4.59036 8.23996 4.51317 8.23996 4.44005C8.23996 3.57474 8.93465 2.88005 9.79996 2.88005C9.91777 2.88005 10.0356 2.8963 10.1534 2.92474C10.2773 2.95317 10.4012 2.89021 10.452 2.77442C10.6937 2.22599 11.2381 1.84005 11.88 1.84005C12.0486 1.84005 12.2131 1.87458 12.3756 1.92942C12.4832 1.96599 12.599 1.92942 12.6661 1.84005C12.9057 1.52521 13.2754 1.32005 13.7 1.32005ZM15 6.00005C18.2276 6.00005 20.2061 6.9263 20.3239 6.98317C21.3882 9.16067 21.6604 11.7099 21.7315 12.9794C20.9881 12.8657 20.0882 12.76 19.16 12.76C18.12 12.76 16.4259 12.9855 15.8084 13.7858C15.8084 13.7879 15.7251 13.989 15.6479 14.3201H14.352C14.2748 13.989 14.1915 13.7879 14.1915 13.7858C13.574 12.9855 11.88 12.76 10.84 12.76C9.89137 12.76 8.96715 12.8697 8.21559 12.9875C8.30496 11.716 8.60965 9.16474 9.67402 6.98317C9.79387 6.92833 11.7723 6.00005 15 6.00005ZM11.36 10.68C10.6531 10.678 9.94418 10.7552 9.27996 10.9096L9.63543 11.5921C10.1859 11.456 10.7729 11.393 11.36 11.3951C12.1054 11.3971 12.8509 11.5027 13.5111 11.72L13.96 11.0558C13.1576 10.808 12.2598 10.6821 11.36 10.68ZM18.64 10.68C17.7401 10.6821 16.8423 10.808 16.04 11.0558L16.4889 11.72C17.149 11.5027 17.8945 11.3971 18.64 11.3951C19.227 11.393 19.814 11.456 20.3645 11.5921L20.72 10.9096C20.0557 10.7552 19.3468 10.678 18.64 10.68ZM10.84 13.2801C11.9165 13.2801 13.2571 13.5218 13.7365 14.0519C13.8178 14.2794 14.0189 14.9477 13.9437 15.8455C13.8462 16.9851 13.3323 18.3663 11.4311 18.478C8.74981 18.474 8.23996 17.3791 8.23996 15.3601V14.4135C8.23996 13.8813 8.64012 13.4365 9.16824 13.3796C9.69637 13.3207 10.2671 13.2801 10.84 13.2801ZM19.16 13.2801C19.7328 13.2801 20.3036 13.3207 20.8317 13.3796C21.3598 13.4365 21.76 13.8813 21.76 14.4135V15.3601C21.76 17.3791 21.2501 18.474 18.5689 18.478C16.6697 18.3663 16.1537 16.9851 16.0582 15.8455C15.9811 14.9477 16.1821 14.2794 16.2634 14.0519C16.7428 13.5218 18.0834 13.2801 19.16 13.2801ZM11.36 13.8C10.9436 13.8 10.5901 14.1068 10.4236 14.5455C10.517 14.4135 10.6632 14.3201 10.84 14.3201C11.1264 14.3201 11.36 14.5536 11.36 14.84C11.36 15.1265 11.1264 15.3601 10.84 15.3601C10.5779 15.3601 10.3728 15.165 10.3342 14.9132C10.3281 14.9741 10.32 15.0371 10.32 15.1C10.32 15.8191 10.7851 16.4001 11.36 16.4001C11.9348 16.4001 12.4 15.8191 12.4 15.1C12.4 14.381 11.9348 13.8 11.36 13.8ZM18.64 13.8C18.2236 13.8 17.8701 14.1068 17.7036 14.5455C17.797 14.4135 17.9432 14.3201 18.12 14.3201C18.4064 14.3201 18.64 14.5536 18.64 14.84C18.64 15.1265 18.4064 15.3601 18.12 15.3601C17.8579 15.3601 17.6528 15.165 17.6142 14.9132C17.6081 14.9741 17.6 15.0371 17.6 15.1C17.6 15.8191 18.0651 16.4001 18.64 16.4001C19.2148 16.4001 19.68 15.8191 19.68 15.1C19.68 14.381 19.2148 13.8 18.64 13.8ZM7.09637 14.251C7.61637 14.2794 7.71996 14.9051 7.71996 15.3601C7.71996 17.4401 8.23996 18.998 11.4453 18.998C13.8096 18.866 14.3642 17.0399 14.4617 15.8902C14.4901 15.5429 14.48 15.2361 14.4536 14.9599C14.5978 14.8908 14.7745 14.84 15 14.84C15.2254 14.84 15.4022 14.8908 15.5464 14.9599C15.52 15.2361 15.5098 15.5429 15.5382 15.8902C15.6357 17.0399 16.1903 18.866 18.5546 18.998C21.76 18.998 22.28 17.4401 22.28 15.3601C22.28 14.8543 22.412 14.1433 23.0986 14.2733C23.1697 14.2916 23.2367 14.3058 23.3078 14.3261C23.6389 14.4196 23.9618 14.5435 24.1568 14.6674C24.3539 14.7893 24.36 14.8502 24.36 14.84C24.36 15.2118 24.1487 16.3147 23.8623 17.2918C23.6957 17.8524 23.5617 18.348 23.3992 18.6324C23.2346 18.9147 23.1554 19 22.8 19C22.5136 19 22.28 19.2336 22.28 19.5201V21.6C22.28 21.8113 21.9001 22.699 21.1831 23.5785C20.4661 24.4601 19.4586 25.4086 18.3576 26.1257C17.1429 26.9158 15.975 27.3201 15 27.3201C14.025 27.3201 12.857 26.9158 11.6443 26.1257C10.5414 25.4086 9.53387 24.4601 8.81684 23.5785C8.09981 22.699 7.71996 21.8113 7.71996 21.6V19.5201C7.71996 19.2336 7.48637 19 7.19996 19C6.84449 19 6.76527 18.9147 6.60277 18.6324C6.43824 18.348 6.30418 17.8524 6.13965 17.2918C5.85121 16.3147 5.63996 15.2118 5.63996 14.84C5.63996 14.8502 5.64606 14.7893 5.84309 14.6674C6.03809 14.5435 6.36105 14.4196 6.69215 14.3261C6.76324 14.3058 6.83027 14.2916 6.90137 14.2733C6.97043 14.2591 7.03949 14.249 7.0984 14.251H7.09637ZM13.6817 20.556C13.5862 20.5621 13.4989 20.621 13.4603 20.7083C13.4197 20.7977 13.4318 20.8993 13.4928 20.9765C13.4928 20.9765 13.6268 21.1491 13.8726 21.3015C14.1184 21.4538 14.4962 21.6 15 21.6C15.5037 21.6 15.8815 21.4538 16.1273 21.3015C16.3731 21.1491 16.5092 20.9765 16.5092 20.9765C16.5945 20.8607 16.5722 20.6982 16.4564 20.6108C16.3406 20.5255 16.1781 20.5479 16.0928 20.6636C16.0928 20.6636 16.0318 20.751 15.8551 20.8586C15.6784 20.9663 15.4062 21.08 15 21.08C14.5937 21.08 14.3215 20.9663 14.1448 20.8586C13.9681 20.751 13.9092 20.6636 13.9092 20.6636C13.8604 20.5986 13.7873 20.5601 13.7081 20.556C13.7 20.556 13.6898 20.556 13.6817 20.556ZM11.0086 22.6421C10.9578 22.6502 10.9111 22.6746 10.8786 22.7172C10.8136 22.8046 10.8318 22.9265 10.9192 22.9915C10.9842 23.0402 12.5584 24.2001 15 24.2001C17.4415 24.2001 19.0157 23.0402 19.0828 22.9915C19.1681 22.9265 19.1864 22.8046 19.1214 22.7172C19.0564 22.6319 18.9345 22.6136 18.8492 22.6786C18.8329 22.6908 17.3054 23.68 15 23.68C12.6945 23.68 11.167 22.6908 11.1528 22.6786C11.1081 22.6461 11.0573 22.634 11.0086 22.6421ZM11.88 26.8772C12.9728 27.5029 14.0371 27.8401 15 27.8401C15.9628 27.8401 17.0271 27.5029 18.12 26.8772V28.1386C18.12 28.7968 18.5364 29.3899 19.1579 29.6093C19.2737 29.6499 19.4057 29.6986 19.5561 29.7494C20.4457 30.0663 21.9306 30.6046 24.1772 31.4455C27.2322 32.5911 27.8334 35.114 27.9573 36.1601H2.04262C2.16652 35.114 2.76777 32.5911 5.82277 31.4455C8.06934 30.6046 9.55621 30.0663 10.4459 29.7494C10.5028 29.7291 10.5475 29.7129 10.6003 29.6946C10.7668 29.7636 10.9578 29.8347 11.1832 29.9079C12.0201 30.176 13.2836 30.4401 15 30.4401C15.2782 30.4401 15.5403 30.4319 15.7921 30.4177C15.8856 30.4136 15.9689 30.3608 16.0115 30.2776C16.0542 30.1943 16.0481 30.0947 15.9993 30.0176C15.9486 29.9383 15.8592 29.8936 15.7657 29.8977C15.52 29.9119 15.2681 29.9201 15 29.9201C13.3364 29.9201 12.1298 29.6641 11.3417 29.4122C11.3112 29.4021 11.2909 29.394 11.2604 29.3838C11.6443 29.0933 11.88 28.6343 11.88 28.1386V26.8772ZM17.8498 29.6316C17.8336 29.6316 17.8193 29.6336 17.8051 29.6377C17.5004 29.7047 17.1632 29.7636 16.7875 29.8124C16.694 29.8226 16.6148 29.8815 16.5782 29.9688C16.5417 30.0541 16.5539 30.1536 16.6107 30.2268C16.6676 30.3019 16.759 30.3405 16.8525 30.3283C17.2445 30.2776 17.5959 30.2146 17.9148 30.1455C18.0509 30.1191 18.1423 29.9932 18.124 29.8571C18.1078 29.721 17.9859 29.6215 17.8498 29.6296V29.6316Z" fill="#6C91AF"/>
</svg>
