<svg width="52" height="52" viewBox="0 0 52 52" fill="none" xmlns="http://www.w3.org/2000/svg">
<path d="M33.5647 8.32409C33.3656 8.32815 33.1666 8.3383 32.9675 8.35455C28.2692 8.74049 24.4484 12.5085 23.9711 17.1966C23.8147 18.7322 24.0564 20.1886 24.5398 21.5272L9.55937 36.5056C7.92422 38.1408 7.92422 40.8099 9.55937 42.445C11.1945 44.0802 13.8636 44.0802 15.5008 42.445L30.4833 27.4625C31.8198 27.9439 33.2762 28.1856 34.8119 28.0272C39.4939 27.5478 43.2598 23.7291 43.6458 19.0349C43.7778 17.4363 43.5259 15.9027 42.9755 14.5255C42.8962 14.3285 42.7053 14.2005 42.492 14.1985C42.3539 14.2005 42.2219 14.2533 42.1244 14.3508L36.6014 19.8738C36.0591 20.4161 35.1978 20.4161 34.6575 19.8738L32.1327 17.3469C31.5903 16.8066 31.5903 15.9474 32.1327 15.405L37.6556 9.88002C37.7531 9.78252 37.808 9.65049 37.808 9.51237C37.808 9.29908 37.68 9.10815 37.483 9.02893C36.2744 8.54346 34.95 8.29158 33.5647 8.32205V8.32409ZM33.8958 9.36815C34.7286 9.39252 35.5248 9.5469 36.2906 9.7744L31.3953 14.6677C30.4569 15.6081 30.4569 17.1438 31.3953 18.0822L33.9202 20.6091C34.8606 21.5475 36.3962 21.5475 37.3347 20.6091L42.228 15.7178C42.5286 16.7375 42.7033 17.81 42.6098 18.9496C42.2645 23.136 38.8866 26.5647 34.7062 26.9933C33.2133 27.1477 31.7975 26.9161 30.5178 26.4022C30.3248 26.325 30.1034 26.3697 29.9572 26.518L14.7655 41.7077C13.5264 42.9467 11.5338 42.9467 10.2947 41.7077C9.05562 40.4706 9.05562 38.478 10.2947 37.2389L25.4844 22.0513C25.6327 21.903 25.6773 21.6836 25.6002 21.4886C25.0863 20.211 24.8527 18.7952 25.005 17.3002C25.4295 13.1158 28.8623 9.7358 33.0528 9.39049C33.3372 9.36815 33.6175 9.36205 33.8958 9.36815ZM41.1027 19.756C40.9869 19.7641 40.8914 19.8453 40.867 19.9571C40.8244 20.1256 40.7756 20.2922 40.7208 20.4567C40.6842 20.5481 40.7025 20.6497 40.7634 20.7228C40.8264 20.796 40.9239 20.8285 41.0173 20.8061C41.1128 20.7858 41.1859 20.7147 41.2123 20.6233C41.2712 20.4446 41.3241 20.2658 41.3708 20.083C41.3931 20.0017 41.3728 19.9164 41.32 19.8514C41.2672 19.7864 41.1859 19.7519 41.1027 19.756ZM40.5197 21.316C40.4242 21.32 40.3389 21.3769 40.2983 21.4602C40.1175 21.8136 39.9103 22.1488 39.6767 22.4656C39.6198 22.5408 39.6077 22.6403 39.6442 22.7256C39.6808 22.811 39.762 22.8699 39.8555 22.88C39.9489 22.8902 40.0403 22.8496 40.0952 22.7744C40.345 22.4352 40.5664 22.0756 40.7614 21.6978C40.8041 21.6166 40.8 21.5171 40.7512 21.4378C40.7005 21.3586 40.6131 21.3139 40.5197 21.316ZM26.2542 22.8516C26.1872 22.8536 26.1242 22.8821 26.0755 22.9308L25.5555 23.4508C25.4884 23.5158 25.462 23.6113 25.4844 23.7027C25.5087 23.7941 25.5798 23.8652 25.6712 23.8896C25.7627 23.9119 25.8581 23.8855 25.9231 23.8164L26.4431 23.2964C26.5223 23.2233 26.5447 23.1075 26.502 23.01C26.4614 22.9105 26.3619 22.8475 26.2542 22.8496V22.8516ZM39.0023 23.3655C38.9333 23.3655 38.8683 23.3919 38.8195 23.4386C37.6759 24.5355 36.183 25.2728 34.5498 25.4394C34.4564 25.4496 34.3752 25.5064 34.3386 25.5917C34.3 25.6771 34.3102 25.7746 34.365 25.8517C34.4178 25.9269 34.5092 25.9675 34.6027 25.9574C36.3577 25.7766 37.9562 24.9885 39.1811 23.8144C39.2583 23.7433 39.2827 23.6296 39.2441 23.53C39.2055 23.4305 39.108 23.3655 39.0023 23.3655ZM24.9542 24.1516C24.8872 24.1536 24.8242 24.1821 24.7755 24.2308L23.9955 25.0088C23.9284 25.0738 23.902 25.1713 23.9244 25.2627C23.9487 25.3521 24.0198 25.4252 24.1112 25.4475C24.2027 25.4719 24.2981 25.4435 24.3631 25.3764L25.1431 24.5964C25.2223 24.5233 25.2447 24.4075 25.202 24.31C25.1614 24.2105 25.0619 24.1475 24.9542 24.1496V24.1516ZM23.3942 25.7116C23.3272 25.7116 23.2642 25.74 23.2155 25.7888L15.1555 33.8467C15.0884 33.9117 15.062 34.0092 15.0844 34.1006C15.1088 34.19 15.1798 34.2631 15.2712 34.2855C15.3627 34.3099 15.4581 34.2814 15.5231 34.2144L23.5831 26.1564C23.6603 26.0813 23.6827 25.9675 23.642 25.87C23.5994 25.7705 23.5019 25.7075 23.3942 25.7096V25.7116ZM12.4803 37.96C11.6211 37.96 10.9203 38.6608 10.9203 39.52C10.9203 40.3792 11.6211 41.08 12.4803 41.08C13.3395 41.08 14.0403 40.3792 14.0403 39.52C14.0403 38.6608 13.3395 37.96 12.4803 37.96ZM12.4803 38.48C13.0572 38.48 13.5203 38.9431 13.5203 39.52C13.5203 40.0969 13.0572 40.56 12.4803 40.56C11.9034 40.56 11.4403 40.0969 11.4403 39.52C11.4403 38.9431 11.9034 38.48 12.4803 38.48Z" fill="#6C91AF"/>
</svg>
