<svg width="62" height="62" viewBox="0 0 62 62" fill="none" xmlns="http://www.w3.org/2000/svg">
<g clip-path="url(#clip0_226_23)">
<path d="M31 62C48.1208 62 62 48.1208 62 31C62 13.8792 48.1208 0 31 0C13.8792 0 0 13.8792 0 31C0 48.1208 13.8792 62 31 62Z" fill="#90CCDF"/>
<path d="M46.4756 32.2693V29.6331L44.2299 29.1449C44.1811 28.7055 44.0834 28.2661 43.9858 27.8268C42.7165 27.9244 41.4472 27.7291 40.2756 27.2898C40.7149 28.4614 41.0079 29.6819 41.0079 31C41.0079 36.5165 36.5165 41.0079 31 41.0079C25.4834 41.0079 20.9921 36.5165 20.9921 31C20.9921 25.4835 25.4834 20.9921 31 20.9921C32.3181 20.9921 33.5874 21.2362 34.7102 21.7244C34.2708 20.5039 34.0756 19.2346 34.1732 18.0142C33.685 17.9165 33.1968 17.8189 32.7086 17.7213L32.2204 15.4756H29.5354L29.0472 17.7213C28.5102 17.8189 27.9244 17.9165 27.4362 18.063L26.1669 16.159L23.726 17.1842L24.1653 19.4787C23.726 19.7228 23.2866 20.0157 22.896 20.3575L21.2362 19.0882L19.1858 20.7968L20.3086 22.8472C19.9669 23.2866 19.6252 23.7748 19.3811 24.263L17.4283 23.726L16.2079 26.0693L18.0142 27.5339C17.8677 28.0709 17.7701 28.6079 17.6724 29.1937L15.622 29.4378L15.3779 32.074L17.6236 32.7575C17.6724 33.3433 17.8189 33.8803 17.9653 34.4173L16.159 35.4425L16.9401 37.9811L19.2834 37.737C19.5764 38.2252 19.8693 38.7134 20.211 39.1527L18.9905 40.7638L20.6992 42.8142L22.7496 41.6913C23.189 42.0331 23.6771 42.3748 24.1653 42.6189L23.6283 44.5717L25.9716 45.7921L27.4362 43.9858C27.9732 44.1323 28.5102 44.2299 29.096 44.3276L29.3401 46.3779L31.9764 46.622L32.6598 44.3764C33.2456 44.3276 33.7827 44.1811 34.3197 44.0346L35.3449 45.8409L37.8834 45.0598L37.6393 42.7165C38.1764 42.4236 38.6645 42.0819 39.1527 41.6913L41.0567 42.9606L42.9118 41.1055L41.6425 39.1527C41.9842 38.7134 42.2771 38.2252 42.5701 37.7858L44.8157 38.2252L45.8409 35.7842L43.937 34.4173C44.0834 33.8803 44.1811 33.3433 44.2299 32.7575L46.4756 32.2693Z" fill="white"/>
<path d="M27.4851 43.9858C27.6316 44.0346 27.7292 44.0346 27.8757 44.0834C27.7292 46.2315 26.8017 48.3307 25.1906 49.9417C22.7009 52.4315 19.1371 53.2126 16.0127 52.285L21.1387 47.159L19.3324 42.6189L14.7922 40.8126L9.66622 45.9874C8.73866 42.863 9.51977 39.2992 12.0095 36.8094C13.6694 35.1496 15.7198 34.2708 17.8678 34.1244C17.8678 34.222 17.9166 34.3197 17.9654 34.4661L16.1591 35.4913L16.9402 38.0299L19.2835 37.7858C19.5765 38.274 19.8694 38.7622 20.2111 39.2016L18.9906 40.7638L20.6993 42.8142L22.7497 41.6913C23.1891 42.0331 23.6772 42.3748 24.1654 42.6189L23.6284 44.5716L25.9717 45.7921L27.4851 43.9858Z" fill="#324A5E"/>
<path d="M49.9907 25.1905C47.208 27.9732 43.1073 28.6078 39.6899 27.1433L27.0947 39.6897C27.1923 39.9338 27.2899 40.1779 27.3876 40.422C24.7514 39.3968 22.6033 37.2976 21.5781 34.6126C21.8222 34.7102 22.0663 34.759 22.3104 34.9055L34.9057 22.3102C33.4411 18.8929 34.0758 14.7921 36.8584 12.0094C39.3482 9.51964 42.912 8.73854 46.0364 9.6661L40.8616 14.7921L42.6679 19.3322L47.208 21.1385L52.334 16.0126C53.2616 19.137 52.4805 22.7007 49.9907 25.1905Z" fill="#324A5E"/>
</g>
<defs>
<clipPath id="clip0_226_23">
<rect width="62" height="62" fill="white"/>
</clipPath>
</defs>
</svg>
