<svg width="48" height="38" viewBox="0 0 48 38" fill="none" xmlns="http://www.w3.org/2000/svg">
<path d="M36.874 0C36.3937 0 36.004 0.43346 36.004 0.962131C36.004 1.49331 36.3937 1.92426 36.874 1.92426H37.164V2.56568H4.81314C4.57298 2.56568 4.35775 2.73105 4.27166 2.9791L0.0394691 15.1661C-0.0307654 15.364 -0.00584424 15.5845 0.102906 15.7599C0.20939 15.9353 0.388375 16.038 0.580953 16.038H2.35947C2.04002 16.0405 1.784 16.3262 1.784 16.6769V35.9196C1.784 36.2753 2.04455 36.561 2.364 36.561H23.244C23.5634 36.561 23.824 36.2753 23.824 35.9196C23.824 35.5663 23.5634 35.2781 23.244 35.2781H13.3817V25.7069C13.3817 23.2064 11.431 21.1694 9.034 21.1694C6.63697 21.1694 4.68626 23.2064 4.68626 25.7069V35.2781H2.944V17.9598H18.894C19.0549 17.9598 19.184 17.817 19.184 17.6391C19.184 17.4637 19.0549 17.3184 18.894 17.3184H2.944V16.6769C2.944 16.3262 2.68798 16.0405 2.3708 16.038H23.824V37.2024C23.824 37.5582 24.0845 37.8438 24.404 37.8438H44.704C45.0234 37.8438 45.284 37.5582 45.284 37.2024V16.038H46.811C46.9923 16.038 47.1645 15.9428 47.2755 15.7799C47.3842 15.6171 47.4182 15.4066 47.3661 15.2137L44.1013 3.0267C44.0266 2.7536 43.8 2.56568 43.544 2.56568H41.804V1.92426H42.094C42.5743 1.92426 42.964 1.49331 42.964 0.962131C42.964 0.43346 42.5743 0 42.094 0H36.874ZM36.874 0.641421H42.094C42.2548 0.641421 42.384 0.786743 42.384 0.962131C42.384 1.14002 42.2548 1.28284 42.094 1.28284H36.874C36.7131 1.28284 36.584 1.14002 36.584 0.962131C36.584 0.786743 36.7131 0.641421 36.874 0.641421ZM37.744 1.92426H41.224V9.62131H37.744V1.92426ZM5.21189 3.84852H37.164V9.94202C37.164 10.1199 37.2931 10.2627 37.454 10.2627H41.514C41.6748 10.2627 41.804 10.1199 41.804 9.94202V3.84852H43.1113L46.0339 14.7527H1.42603L5.21189 3.84852ZM5.554 5.77278C5.39314 5.77278 5.264 5.91811 5.264 6.0935C5.264 6.27139 5.39314 6.41421 5.554 6.41421H35.714C35.8749 6.41421 36.004 6.27139 36.004 6.0935C36.004 5.91811 35.8749 5.77278 35.714 5.77278H5.554ZM4.974 7.69705C4.81314 7.69705 4.684 7.84237 4.684 8.01776C4.684 8.19565 4.81314 8.33847 4.974 8.33847H33.974C34.1349 8.33847 34.264 8.19565 34.264 8.01776C34.264 7.84237 34.1349 7.69705 33.974 7.69705H4.974ZM4.394 9.62131C4.23314 9.62131 4.104 9.76663 4.104 9.94202C4.104 10.1199 4.23314 10.2627 4.394 10.2627H32.814C32.9749 10.2627 33.104 10.1199 33.104 9.94202C33.104 9.76663 32.9749 9.62131 32.814 9.62131H4.394ZM24.984 16.6769H44.124V17.3184H29.914C29.7531 17.3184 29.624 17.4637 29.624 17.6391C29.624 17.817 29.7531 17.9598 29.914 17.9598H44.124V36.561H24.984V16.6769ZM20.634 17.3184C20.4731 17.3184 20.344 17.4637 20.344 17.6391C20.344 17.817 20.4731 17.9598 20.634 17.9598H22.374C22.5349 17.9598 22.664 17.817 22.664 17.6391C22.664 17.4637 22.5349 17.3184 22.374 17.3184H20.634ZM27.014 17.3184C26.8531 17.3184 26.724 17.4637 26.724 17.6391C26.724 17.817 26.8531 17.9598 27.014 17.9598H28.174C28.3349 17.9598 28.464 17.817 28.464 17.6391C28.464 17.4637 28.3349 17.3184 28.174 17.3184H27.014ZM9.034 21.8083C11.1138 21.8083 12.8063 23.5572 12.8063 25.7094V35.2806H5.26173V25.7094C5.26173 23.5572 6.95415 21.8083 9.034 21.8083ZM30.494 21.8108C30.3354 21.8108 30.2063 21.9536 30.2063 22.129V32.3917C30.2063 32.5696 30.3354 32.7099 30.494 32.7099H38.614C38.7726 32.7099 38.9017 32.5696 38.9017 32.3917V24.0533C38.9017 23.8779 38.7726 23.7351 38.614 23.7351C38.4554 23.7351 38.3263 23.8779 38.3263 24.0533V32.0735H34.8417V22.4472H37.454C37.6126 22.4472 37.7417 22.3069 37.7417 22.129C37.7417 21.9536 37.6126 21.8108 37.454 21.8108H30.494ZM30.7817 22.4497H34.2663V32.076H30.7817V22.4497ZM15.994 22.4497C15.8331 22.4497 15.704 22.595 15.704 22.7704V28.5432C15.704 28.7211 15.8331 28.8639 15.994 28.8639H20.054C20.2149 28.8639 20.344 28.7211 20.344 28.5432C20.344 28.3678 20.2149 28.2225 20.054 28.2225H18.604V23.0911H20.344V27.2604C20.344 27.4383 20.4731 27.5811 20.634 27.5811C20.7949 27.5811 20.924 27.4383 20.924 27.2604V22.7704C20.924 22.595 20.7949 22.4497 20.634 22.4497H15.994ZM16.284 23.0911H18.024V28.2225H16.284V23.0911ZM9.034 23.6824C7.59533 23.6824 6.42626 25.0906 6.42626 26.8194V27.9043C6.42626 28.0797 6.5554 28.2225 6.714 28.2225H11.354C11.5126 28.2225 11.6417 28.0797 11.6417 27.9043V26.8194C11.6417 25.0881 10.4727 23.6824 9.034 23.6824ZM9.034 24.3189C10.1555 24.3189 11.0663 25.4413 11.0663 26.8169V27.5836H7.00173V26.8169C7.00173 25.4388 7.91251 24.3189 9.034 24.3189ZM11.354 30.1493C11.1954 30.1493 11.0663 30.2921 11.0663 30.4675C11.0663 30.6454 11.1954 30.7857 11.354 30.7857H11.934C12.0926 30.7857 12.2217 30.6454 12.2217 30.4675C12.2217 30.2921 12.0926 30.1493 11.934 30.1493H11.354Z" fill="#6C91AF"/>
</svg>
