<svg width="50" height="50" viewBox="0 0 50 50" fill="none" xmlns="http://www.w3.org/2000/svg">
<path d="M25 7C15.0742 7 7 15.0742 7 25C7 34.9258 15.0742 43 25 43C34.9258 43 43 34.9258 43 25C43 15.0742 34.9258 7 25 7ZM25 8C34.373 8 42 15.627 42 25C42 34.373 34.373 42 25 42C15.627 42 8 34.373 8 25C8 15.627 15.627 8 25 8ZM25 9.5C16.4531 9.5 9.5 16.4531 9.5 25C9.5 33.5469 16.4531 40.5 25 40.5C33.5469 40.5 40.5 33.5469 40.5 25C40.5 20.6387 38.6484 16.457 35.418 13.5234C35.3164 13.4316 35.1582 13.4375 35.0645 13.541C34.9727 13.6426 34.9805 13.8008 35.082 13.8945C38.207 16.7324 40 20.7812 40 25C40 33.2715 33.2715 40 25 40C16.7285 40 10 33.2715 10 25C10 16.7285 16.7285 10 25 10C26.7754 10 28.5117 10.3066 30.1641 10.9121C30.293 10.9609 30.4375 10.8926 30.4844 10.7637C30.5312 10.6348 30.4648 10.4902 30.3359 10.4434C28.6289 9.81641 26.834 9.5 25 9.5ZM31.7637 11.0703C31.668 11.0664 31.5723 11.1172 31.5254 11.209C31.4648 11.334 31.5156 11.4844 31.6387 11.5449C31.9707 11.709 32.3008 11.8887 32.6211 12.0781C32.6621 12.1016 32.7051 12.1133 32.748 12.1133C32.834 12.1133 32.918 12.0684 32.9648 11.9902C33.0352 11.8711 32.9961 11.7188 32.877 11.6465C32.5449 11.4512 32.2031 11.2676 31.8594 11.0957C31.8301 11.082 31.7969 11.0723 31.7637 11.0703ZM33.707 12.2617C33.6426 12.2734 33.584 12.3086 33.5449 12.3652C33.4668 12.4785 33.4922 12.6348 33.6055 12.7129C33.7734 12.8301 33.9375 12.9492 34.0977 13.0723C34.1426 13.1074 34.1953 13.123 34.248 13.123C34.3242 13.123 34.3984 13.0918 34.4473 13.0254C34.5332 12.916 34.5117 12.7598 34.4004 12.6758C34.2344 12.5488 34.0645 12.4238 33.8926 12.3027C33.8359 12.2637 33.7695 12.25 33.7051 12.2617H33.707ZM25 16C24.1738 16 23.5 16.6738 23.5 17.5V23.5H18C17.1738 23.5 16.5 24.1738 16.5 25C16.5 25.8262 17.1738 26.5 18 26.5H23.5V32.5C23.5 33.3262 24.1738 34 25 34C25.8262 34 26.5 33.3262 26.5 32.5V26.5H32C32.8262 26.5 33.5 25.8262 33.5 25C33.5 24.1738 32.8262 23.5 32 23.5H26.5V17.5C26.5 16.6738 25.8262 16 25 16ZM25 16.5C25.5508 16.5 26 16.9492 26 17.5V23.75C26 23.8887 26.1113 24 26.25 24H32C32.5508 24 33 24.4492 33 25C33 25.5508 32.5508 26 32 26H26.25C26.1113 26 26 26.1113 26 26.25V32.5C26 33.0508 25.5508 33.5 25 33.5C24.4492 33.5 24 33.0508 24 32.5V26.25C24 26.1113 23.8887 26 23.75 26H18C17.4492 26 17 25.5508 17 25C17 24.4492 17.4492 24 18 24H23.75C23.8887 24 24 23.8887 24 23.75V17.5C24 16.9492 24.4492 16.5 25 16.5Z" fill="#6C91AF"/>
</svg>
