<svg width="50" height="50" viewBox="0 0 50 50" fill="none" xmlns="http://www.w3.org/2000/svg">
<path d="M25 7C15.0645 7 7 15.0645 7 25C7 34.9355 15.0645 43 25 43C34.9355 43 43 34.9355 43 25C43 15.0645 34.9355 7 25 7ZM25 8C34.3945 8 42 15.6055 42 25C42 34.3945 34.3945 42 25 42C15.6055 42 8 34.3945 8 25C8 15.6055 15.6055 8 25 8ZM25 9.5C16.4434 9.5 9.5 16.4434 9.5 25C9.5 33.5566 16.4434 40.5 25 40.5C33.5566 40.5 40.5 33.5566 40.5 25C40.5 20.4531 38.5391 16.3594 35.418 13.5234C35.3516 13.4609 35.2578 13.4375 35.1699 13.4648C35.084 13.4922 35.0176 13.5645 35 13.6523C34.9805 13.7422 35.0137 13.834 35.082 13.8945C38.1035 16.6367 40 20.5957 40 25C40 33.2871 33.2871 40 25 40C16.7129 40 10 33.2871 10 25C10 16.7129 16.7129 10 25 10C26.8145 10 28.5547 10.3223 30.1641 10.9141C30.248 10.9434 30.3418 10.9277 30.4102 10.8691C30.4785 10.8125 30.5117 10.7227 30.4961 10.6348C30.4805 10.5469 30.4199 10.4746 30.3359 10.4434C28.6719 9.83398 26.875 9.5 25 9.5ZM31.7402 11.0703C31.625 11.0723 31.5254 11.1543 31.502 11.2676C31.4785 11.3809 31.5352 11.4961 31.6387 11.5449C31.9727 11.7109 32.3027 11.8906 32.623 12.0781C32.6992 12.127 32.7969 12.1289 32.877 12.084C32.9551 12.041 33.0039 11.957 33.0039 11.8672C33.0039 11.7773 32.9551 11.6934 32.877 11.6484C32.5449 11.4531 32.207 11.2695 31.8613 11.0977C31.8242 11.0781 31.7832 11.0684 31.7402 11.0703ZM33.7539 12.2559C33.7461 12.2559 33.7363 12.2559 33.7285 12.2578C33.623 12.2656 33.5332 12.3379 33.5059 12.4414C33.4785 12.5449 33.5176 12.6523 33.6074 12.7129C33.7734 12.8301 33.9375 12.9492 34.0977 13.0723C34.168 13.127 34.2637 13.1406 34.3457 13.1055C34.4277 13.0723 34.4863 12.9961 34.498 12.9062C34.5098 12.8184 34.4727 12.7305 34.4023 12.6758C34.2363 12.5488 34.0645 12.4238 33.8926 12.3027C33.8535 12.2734 33.8047 12.2578 33.7539 12.2559ZM33.2852 19.002C32.9648 18.9922 32.6406 19.1055 32.3926 19.3398C32.3887 19.3418 32.3867 19.3438 32.3848 19.3457L23.7383 28.0332L18.6016 22.834C18.5977 22.8301 18.5938 22.8281 18.5918 22.8262C18.082 22.3613 17.2871 22.4004 16.8262 22.9082C16.8262 22.9082 16.8262 22.9082 16.8262 22.9102C16.3633 23.418 16.4004 24.2129 16.9102 24.6758L22.9004 30.666C22.9023 30.668 22.9062 30.6719 22.9082 30.6738C23.1465 30.8906 23.4492 31 23.75 31C24.0586 31 24.3691 30.8848 24.6094 30.6582C24.6094 30.6562 24.6113 30.6543 24.6133 30.6543L34.1074 21.1582C34.6074 20.6855 34.6309 19.8906 34.1582 19.3926C33.9219 19.1406 33.6055 19.0098 33.2852 19.002ZM33.2715 19.498C33.4609 19.5039 33.6504 19.582 33.7949 19.7344C34.082 20.0371 34.0684 20.5078 33.7637 20.7949C33.7617 20.7969 33.7598 20.7988 33.7578 20.8008L24.2637 30.2949C24.1191 30.4316 23.9355 30.5 23.75 30.5C23.5703 30.5 23.3906 30.4355 23.2461 30.3047C23.2461 30.3047 23.2461 30.3047 23.2441 30.3047L17.2539 24.3125C17.252 24.3105 17.248 24.3066 17.2441 24.3047C16.9375 24.0254 16.9141 23.5527 17.1953 23.2441C17.4766 22.9375 17.9453 22.9141 18.2539 23.1953L23.5586 28.5625C23.6055 28.6094 23.6699 28.6367 23.7363 28.6367C23.8027 28.6367 23.8672 28.6094 23.9141 28.5625L32.7363 19.7031C32.8867 19.5605 33.0801 19.4922 33.2715 19.498Z" fill="#6C91AF"/>
</svg>
